<?xml version="1.0" standalone="no"?><!DOCTYPE svg PUBLIC "-//W3C//DTD SVG 1.1//EN" "http://www.w3.org/Graphics/SVG/1.1/DTD/svg11.dtd"><svg t="1728371196013" class="icon" viewBox="0 0 1024 1024" version="1.1" xmlns="http://www.w3.org/2000/svg" p-id="4262" xmlns:xlink="http://www.w3.org/1999/xlink" width="200" height="200"><path d="M512 0c282.769067 0 512 229.230933 512 512s-229.230933 512-512 512S0 794.769067 0 512 229.230933 0 512 0z" fill="#E83434" p-id="4263"></path><path d="M166.382933 471.338667c-31.505067 37.632-21.879467 116.369067 0.8704 151.3728 13.994667 21.870933 28.8768 21.870933 35.874134 19.2512 50.747733-8.7552 130.372267-34.133333 152.2432-51.626667l1.749333-0.878933 0.878933-1.749334c7.876267-13.124267 6.126933-27.118933 4.369067-39.3728-2.619733-15.744-2.619733-25.3696 8.7552-35.874133 3.498667-3.498667 21.870933-13.124267 118.997333-13.994667h41.992534c99.754667 0.8704 118.126933 11.374933 121.6256 14.8736 11.374933 10.496 9.6256 20.1216 6.997333 35.874134-1.749333 12.245333-4.3776 26.248533 2.628267 39.3728l0.8704 1.749333 1.749333 0.8704c21.000533 17.501867 99.754667 42.88 149.623467 51.626667 6.997333 1.749333 20.1216 2.628267 33.245866-13.994667 27.997867-33.2544 43.7504-119.876267 8.7552-159.249067-48.9984-55.125333-166.2464-88.3712-315.869866-89.250133h-55.125334c-148.736 0-267.733333 32.375467-319.36 88.379733l-0.8704 2.619734z" fill="#FFFFFF" p-id="4264"></path></svg>